<svg width="16" height="16" viewBox="0 0 16 16" fill="none" xmlns="http://www.w3.org/2000/svg">
<g clip-path="url(#clip0_2431_11894)">
<path d="M5.49615 4.89328L1.24282 5.50995L1.16749 5.52528C1.05345 5.55556 0.949484 5.61555 0.866215 5.69915C0.782947 5.78274 0.723356 5.88694 0.693529 6.0011C0.663701 6.11526 0.664705 6.23529 0.696439 6.34893C0.728172 6.46257 0.789498 6.56576 0.874154 6.64795L3.95549 9.64728L3.22882 13.8839L3.22015 13.9573C3.21317 14.0752 3.23766 14.1929 3.29112 14.2983C3.34458 14.4037 3.42508 14.4929 3.52438 14.557C3.62368 14.621 3.73821 14.6575 3.85625 14.6627C3.97429 14.6679 4.0916 14.6416 4.19615 14.5866L8.00015 12.5866L11.7955 14.5866L11.8622 14.6173C11.9722 14.6606 12.0918 14.6739 12.2087 14.6558C12.3255 14.6377 12.4355 14.5888 12.5272 14.5141C12.619 14.4395 12.6892 14.3418 12.7307 14.231C12.7722 14.1203 12.7835 14.0005 12.7635 13.8839L12.0362 9.64728L15.1188 6.64728L15.1708 6.59062C15.2451 6.49913 15.2938 6.38958 15.312 6.27315C15.3301 6.15671 15.3171 6.03753 15.2742 5.92777C15.2313 5.818 15.1601 5.72157 15.0678 5.64829C14.9755 5.57501 14.8654 5.52751 14.7488 5.51062L10.4955 4.89328L8.59415 1.03995C8.53914 0.928305 8.45397 0.834292 8.34828 0.768551C8.2426 0.702811 8.12062 0.667969 7.99615 0.667969C7.87169 0.667969 7.74971 0.702811 7.64403 0.768551C7.53834 0.834292 7.45317 0.928305 7.39815 1.03995L5.49615 4.89328Z" fill="#FFCB45"/>
<mask id="mask0_2431_11894" style="mask-type:alpha" maskUnits="userSpaceOnUse" x="0" y="0" width="16" height="16">
<g clip-path="url(#clip1_2431_11894)">
<path d="M10.5038 4.89328L14.7572 5.50995L14.8325 5.52528C14.9466 5.55556 15.0505 5.61556 15.1338 5.69915C15.2171 5.78275 15.2766 5.88694 15.3065 6.0011C15.3363 6.11526 15.3353 6.23529 15.3036 6.34893C15.2718 6.46257 15.2105 6.56576 15.1258 6.64795L12.0445 9.64728L12.7712 13.884L12.7798 13.9573C12.7868 14.0752 12.7623 14.1929 12.7089 14.2983C12.6554 14.4037 12.5749 14.4929 12.4756 14.557C12.3763 14.621 12.2618 14.6575 12.1437 14.6627C12.0257 14.6679 11.9084 14.6416 11.8038 14.5866L7.99985 12.5866L4.20451 14.5866L4.13785 14.6173C4.0278 14.6606 3.90821 14.6739 3.79134 14.6558C3.67447 14.6377 3.56452 14.5888 3.47278 14.5141C3.38104 14.4395 3.31081 14.3418 3.26929 14.231C3.22777 14.1203 3.21646 14.0005 3.23651 13.884L3.96385 9.64728L0.881178 6.64728L0.829178 6.59062C0.754896 6.49913 0.706193 6.38958 0.68803 6.27315C0.669868 6.15671 0.682895 6.03753 0.725784 5.92777C0.768674 5.818 0.839893 5.72157 0.932186 5.64829C1.02448 5.57501 1.13455 5.52751 1.25118 5.51062L5.50451 4.89328L7.40584 1.03995C7.46086 0.928305 7.54603 0.834292 7.65172 0.768551C7.7574 0.702811 7.87938 0.667969 8.00384 0.667969C8.12831 0.667969 8.25029 0.702811 8.35597 0.768551C8.46166 0.834292 8.54683 0.928305 8.60184 1.03995L10.5038 4.89328Z" fill="#FFCB45"/>
</g>
</mask>
<g mask="url(#mask0_2431_11894)">
<rect width="8" height="17" transform="matrix(-1 0 0 1 16 -1)" fill="#D9D9D9"/>
</g>
</g>
<defs>
<clipPath id="clip0_2431_11894">
<rect width="16" height="16" fill="white"/>
</clipPath>
<clipPath id="clip1_2431_11894">
<rect width="16" height="16" fill="white" transform="matrix(-1 0 0 1 16 0)"/>
</clipPath>
</defs>
</svg>
